# xmcd
#
# Track frame offsets: 
#        150
#        23000
#        43562
#        64482
#        89560
#        114865
#        135302
#        154242
#        171480
#        191875
#
# Disc length: 2846 seconds
#
# Revision: 1
# Processed by: cddbd v1.5.2PL0 Copyright (c) Steve Scherf et al.
# Submitted via: ExactAudioCopyFreeDBPlugin 1.0
#
DISCID=870b1c0a
DTITLE=奥井雅美 - S-mode#2 disc2
DYEAR=2004
DGENRE=Pop
TTITLE0=Lonely Soul
TTITLE1=虹のように
TTITLE2=Sprit Of The Globe
TTITLE3=I Can't...
TTITLE4=Precius Wing
TTITLE5=太陽の花
TTITLE6=恋しましょ　ねばりましょ
TTITLE7=なりたい
TTITLE8=手のひらの破片
TTITLE9=Memorial Song
EXTD=YEAR: 2004
EXTT0=
EXTT1=
EXTT2=
EXTT3=
EXTT4=
EXTT5=
EXTT6=
EXTT7=
EXTT8=
EXTT9=
PLAYORDER=
